<?xml version="1.0" standalone="no"?>
<!DOCTYPE svg PUBLIC "-//W3C//DTD SVG 20010904//EN"
 "http://www.w3.org/TR/2001/REC-SVG-20010904/DTD/svg10.dtd">
<svg version="1.0" xmlns="http://www.w3.org/2000/svg"
 width="256.000000pt" height="256.000000pt" viewBox="0 0 256.000000 256.000000"
 preserveAspectRatio="xMidYMid meet">
<metadata>
Created by potrace 1.14, written by Peter Selinger 2001-2017
</metadata>
<g transform="translate(0.000000,256.000000) scale(0.100000,-0.100000)"
fill="#000000" stroke="none">
<path d="M1155 2150 c-315 -45 -577 -274 -677 -590 -20 -65 -23 -95 -23 -230
0 -135 3 -165 23 -230 67 -214 216 -396 403 -495 37 -19 71 -35 75 -35 5 0
-19 16 -54 34 -227 123 -379 323 -427 565 -24 114 -16 297 15 396 69 218 218
396 415 495 123 61 217 83 365 83 152 0 241 -21 380 -89 82 -41 109 -61 196
-148 86 -86 108 -115 147 -195 55 -108 72 -163 91 -286 8 -50 14 -74 15 -55 3
124 -78 341 -174 468 -98 130 -289 255 -451 296 -76 19 -239 28 -319 16z"/>
<path d="M907 1713 c-11 -10 -8 -123 3 -123 6 0 10 11 10 24 0 13 9 34 19 47
18 23 26 24 160 27 l141 4 0 -391 c0 -233 -4 -400 -10 -416 -6 -16 -26 -33
-52 -45 l-43 -19 145 0 145 0 -42 19 c-34 15 -44 26 -53 57 -7 26 -10 160 -8
413 l3 375 138 0 c134 0 139 -1 158 -24 10 -13 19 -34 19 -47 0 -13 5 -24 10
-24 7 0 10 24 8 63 l-3 62 -371 3 c-204 1 -373 -1 -377 -5z"/>
<path d="M735 1474 c19 -14 20 -29 23 -204 3 -179 2 -190 -17 -209 l-21 -21
63 1 c48 0 57 2 39 9 -42 17 -53 66 -50 230 l3 150 79 -173 c44 -94 83 -176
87 -180 4 -5 16 16 28 47 23 62 27 88 6 41 l-13 -30 -86 178 -85 177 -38 0
c-36 -1 -37 -1 -18 -16z"/>
<path d="M1094 1479 c-3 -6 -6 -99 -5 -207 1 -109 -2 -202 -6 -208 -5 -6 -15
-14 -23 -17 -8 -3 14 -6 50 -6 49 0 61 2 48 10 -16 9 -18 30 -18 206 0 169 2
199 17 215 15 17 14 18 -20 18 -20 0 -39 -5 -43 -11z"/>
<path d="M1410 1482 c0 -5 7 -12 15 -16 13 -4 15 -37 15 -205 0 -177 -2 -201
-17 -209 -21 -12 119 -27 178 -19 102 14 164 99 164 227 0 92 -26 154 -80 196
-37 28 -44 29 -157 32 -72 2 -118 0 -118 -6z m246 -32 c45 -42 66 -102 66
-191 0 -90 -26 -158 -73 -192 -29 -21 -95 -33 -133 -23 l-26 6 0 209 c0 114 3
211 8 215 4 4 35 6 69 4 49 -3 68 -9 89 -28z"/>
<path d="M1032 1318 c-23 -61 -40 -113 -38 -115 2 -2 22 47 45 108 23 61 40
113 38 115 -2 2 -22 -46 -45 -108z"/>
<path d="M2293 1165 c-28 -34 -45 -45 -68 -46 -23 -1 -25 -3 -7 -6 l22 -4 -21
-32 c-12 -18 -2 -10 22 18 24 27 56 63 72 79 15 16 27 31 27 32 0 11 -13 -1
-47 -41z"/>
<path d="M2019 1127 c-9 -7 -23 -28 -33 -47 -16 -34 -16 -34 1 -10 10 14 28
35 40 48 24 23 19 29 -8 9z"/>
<path d="M1775 1120 c-7 -12 2 -12 30 0 19 8 19 9 -2 9 -12 1 -25 -3 -28 -9z"/>
<path d="M1830 1119 c0 -5 11 -9 25 -9 14 0 25 4 25 9 0 5 -11 9 -25 9 -14 0
-25 -4 -25 -9z"/>
<path d="M2090 1120 c-13 -9 -13 -10 0 -9 8 0 24 4 35 9 l20 9 -20 0 c-11 0
-27 -4 -35 -9z"/>
<path d="M2290 1120 c-9 -6 -10 -10 -3 -10 6 0 15 5 18 10 8 12 4 12 -15 0z"/>
<path d="M2333 1122 c-6 -4 9 -7 33 -8 24 0 44 2 44 6 0 9 -62 11 -77 2z"/>
<path d="M1890 1116 c0 -2 14 -6 30 -8 17 -3 30 -1 30 4 0 4 -13 8 -30 8 -16
0 -30 -2 -30 -4z"/>
<path d="M2158 1113 c7 -3 16 -2 19 1 4 3 -2 6 -13 5 -11 0 -14 -3 -6 -6z"/>
<path d="M1925 1020 c-10 -11 -16 -22 -13 -25 3 -3 13 6 22 20 20 30 16 32 -9
5z"/>
<path d="M1971 910 c-82 -137 -203 -244 -362 -320 -92 -43 -95 -55 -4 -15 161
72 321 220 399 373 29 56 10 35 -33 -38z"/>
<path d="M982 560 c33 -21 172 -50 232 -49 61 2 61 2 -19 9 -68 6 -120 17
-212 46 -17 5 -17 5 -1 -6z"/>
<path d="M1465 539 c-16 -5 -66 -14 -110 -19 l-80 -9 80 4 c66 3 204 33 155
33 -8 0 -28 -4 -45 -9z"/>
</g>
</svg>
