<svg xmlns="http://www.w3.org/2000/svg" xmlns:xlink="http://www.w3.org/1999/xlink" width="1350" zoomAndPan="magnify" viewBox="0 0 1012.5 374.999991" height="500" preserveAspectRatio="xMidYMid meet" version="1.0"><defs><g/><clipPath id="695a628b08"><path d="M 142.105469 11.316406 L 484 11.316406 L 484 40.9375 L 142.105469 40.9375 Z M 142.105469 11.316406 " clip-rule="nonzero"/></clipPath></defs><g fill="#000000" fill-opacity="1"><g transform="translate(187.586483, 325.371007)"><g><path d="M 240.96875 -249.96875 C 240.96875 -256.507812 238.648438 -262.164062 234.015625 -266.9375 C 229.378906 -271.71875 223.921875 -274.242188 217.640625 -274.515625 L 139.921875 -274.515625 L 139.921875 -29.453125 C 140.191406 -22.359375 142.847656 -16.359375 147.890625 -11.453125 C 152.941406 -6.546875 159.007812 -4.09375 166.09375 -4.09375 L 171.421875 -4.09375 L 171.421875 0 L 81.828125 0 L 81.828125 -4.09375 L 87.140625 -4.09375 C 94.234375 -4.09375 100.300781 -6.546875 105.34375 -11.453125 C 110.394531 -16.359375 113.054688 -22.222656 113.328125 -29.046875 L 113.328125 -274.515625 L 35.59375 -274.515625 C 29.050781 -274.242188 23.523438 -271.71875 19.015625 -266.9375 C 14.515625 -262.164062 12.265625 -256.507812 12.265625 -249.96875 L 12.265625 -243.015625 L 8.1875 -242.609375 L 8.1875 -294.15625 C 12.269531 -292.507812 19.359375 -290.867188 29.453125 -289.234375 C 39.546875 -287.597656 48.820312 -286.78125 57.28125 -286.78125 L 195.546875 -286.78125 C 208.910156 -286.78125 220.023438 -287.800781 228.890625 -289.84375 C 237.753906 -291.894531 243.144531 -293.332031 245.0625 -294.15625 L 245.0625 -242.609375 L 240.96875 -243.015625 Z M 240.96875 -249.96875 "/></g></g></g><g clip-path="url(#695a628b08)"><path fill="#ffffff" d="M 142.105469 11.316406 L 483.765625 11.316406 L 483.765625 42.785156 L 142.105469 42.785156 Z M 142.105469 11.316406 " fill-opacity="1" fill-rule="nonzero"/></g><g fill="#000000" fill-opacity="1"><g transform="translate(99.620219, 281.621654)"><g><path d="M 4.988281 -166.222656 L 4.988281 -164.558594 C 19.28125 -164.558594 20.277344 -152.757812 20.277344 -120.011719 L 20.277344 -46.210938 C 20.277344 -13.464844 19.28125 -1.664062 4.988281 -1.664062 L 4.988281 0 L 49.867188 0 L 49.867188 -1.664062 C 35.570312 -1.664062 21.941406 -13.628906 21.941406 -62 L 21.941406 -83.109375 L 22.105469 -154.417969 C 47.371094 -100.230469 62.332031 -67.984375 88.429688 -12.132812 L 89.925781 -12.132812 C 110.371094 -66.988281 127.160156 -112.699219 145.109375 -160.734375 L 145.109375 -46.210938 C 145.109375 -13.464844 144.113281 -1.664062 129.820312 -1.664062 L 129.820312 0 L 174.699219 0 L 174.699219 -1.664062 C 160.402344 -1.664062 159.40625 -13.464844 159.40625 -46.210938 L 159.40625 -120.011719 C 159.40625 -152.757812 160.402344 -164.558594 174.699219 -164.558594 L 174.699219 -166.222656 L 145.445312 -166.222656 L 95.578125 -32.246094 L 31.75 -166.222656 Z M 4.988281 -166.222656 "/></g></g></g><g fill="#000000" fill-opacity="1"><g transform="translate(356.368747, 281.621654)"><g><path d="M 4.988281 0 L 18.285156 0 C 35.738281 0 50.03125 3.324219 64.660156 3.324219 C 115.855469 3.324219 140.125 -37.566406 140.125 -83.109375 C 140.125 -128.65625 115.855469 -169.546875 64.660156 -169.546875 C 50.03125 -169.546875 35.738281 -166.222656 18.285156 -166.222656 L 4.988281 -166.222656 L 4.988281 -164.558594 C 19.28125 -164.558594 20.277344 -152.757812 20.277344 -120.011719 L 20.277344 -46.210938 C 20.277344 -13.464844 19.28125 -1.664062 4.988281 -1.664062 Z M 34.40625 -162.5625 C 44.046875 -165.554688 53.6875 -167.21875 64.492188 -167.21875 C 105.550781 -167.21875 125.828125 -128.488281 125.828125 -83.109375 C 125.828125 -37.730469 105.550781 0.996094 64.492188 0.996094 C 53.6875 0.996094 44.046875 -0.664062 34.40625 -3.65625 Z M 34.40625 -162.5625 "/></g></g></g><g fill="#1f2122" fill-opacity="1"><g transform="translate(501.01459, 292.037633)"><g><path d="M -3.644531 -36.296875 C -3.375 -36.703125 -2.5625 -37.242188 -2.023438 -37.644531 L -0.539062 -38.726562 C 0 -39.265625 0.808594 -39.671875 3.644531 -41.019531 L 5.128906 -41.828125 C 5.800781 -42.097656 5.9375 -42.097656 6.476562 -41.695312 C 7.285156 -41.289062 8.367188 -41.425781 10.253906 -42.097656 L 12.414062 -43.179688 L 13.898438 -43.851562 C 14.167969 -43.988281 14.84375 -44.125 15.113281 -44.125 C 15.515625 -44.125 15.789062 -44.257812 16.191406 -44.527344 C 17 -45.335938 17.136719 -45.742188 16.867188 -46.148438 C 16.597656 -46.6875 16.191406 -46.6875 15.113281 -45.878906 C 14.574219 -45.609375 14.167969 -45.335938 14.03125 -45.335938 C 13.898438 -45.335938 13.492188 -45.203125 13.089844 -44.933594 C 11.875 -44.125 9.175781 -42.910156 8.367188 -42.910156 C 8.097656 -42.910156 7.960938 -43.042969 7.824219 -43.449219 C 7.691406 -44.257812 7.285156 -44.394531 6.476562 -43.988281 C 6.207031 -43.71875 3.375 -42.503906 2.699219 -42.097656 L 1.484375 -41.558594 C 1.078125 -41.289062 1.484375 -41.828125 2.5625 -42.773438 C 3.914062 -43.988281 4.183594 -44.796875 3.375 -45.066406 C 2.96875 -45.203125 2.699219 -45.203125 2.160156 -44.796875 C 0.945312 -44.125 -2.160156 -41.019531 -3.238281 -39.671875 L -4.453125 -38.1875 C -4.859375 -37.644531 -5.261719 -37.105469 -5.398438 -36.835938 C -5.53125 -35.757812 -4.316406 -35.488281 -3.644531 -36.296875 Z M -3.644531 -36.296875 "/></g></g></g><g fill="#1f2122" fill-opacity="1"><g transform="translate(522.064173, 292.037633)"><g><path d="M -1.347656 -36.835938 C 0.136719 -37.105469 1.078125 -37.375 3.507812 -38.589844 L 9.582031 -41.289062 L 11.335938 -42.097656 C 11.46875 -42.234375 11.46875 -42.640625 11.199219 -42.773438 L 11.066406 -42.910156 L 10.660156 -42.910156 L 10.390625 -42.773438 C 2.96875 -39.535156 -1.484375 -37.917969 -2.292969 -38.1875 C -2.5625 -38.320312 -2.5625 -38.457031 -2.160156 -38.859375 C -1.890625 -39.402344 -1.621094 -39.535156 -0.675781 -39.804688 C 0.808594 -40.210938 2.160156 -40.886719 4.453125 -42.503906 C 6.613281 -43.988281 7.554688 -44.796875 7.421875 -45.203125 C 7.152344 -46.011719 5.9375 -45.878906 3.777344 -45.066406 C 1.078125 -44.125 -2.023438 -41.695312 -3.375 -39.535156 C -4.046875 -38.457031 -4.183594 -38.050781 -3.914062 -37.511719 C -3.777344 -36.566406 -3.507812 -36.566406 -1.347656 -36.835938 Z M -0.269531 -41.289062 C -0.136719 -41.695312 2.160156 -43.3125 3.101562 -43.582031 C 3.914062 -43.988281 5.261719 -44.527344 5.261719 -44.257812 C 5.128906 -44.125 3.101562 -42.773438 1.890625 -42.097656 C 0.40625 -41.289062 -0.539062 -41.019531 -0.269531 -41.289062 Z M -0.269531 -41.289062 "/></g></g></g><g fill="#1f2122" fill-opacity="1"><g transform="translate(532.858824, 292.037633)"><g><path d="M 2.96875 -36.835938 C 3.507812 -36.703125 4.046875 -36.703125 4.585938 -36.835938 L 4.992188 -36.835938 C 4.992188 -36.835938 7.421875 -37.375 9.984375 -38.589844 L 17.675781 -42.097656 C 17.945312 -42.234375 17.945312 -42.640625 17.675781 -42.773438 L 17.542969 -42.910156 L 17.136719 -42.910156 L 16.867188 -42.773438 C 10.929688 -40.210938 6.882812 -38.589844 5.128906 -38.1875 C 5.128906 -38.1875 3.375 -37.644531 3.238281 -38.1875 C 2.699219 -39.402344 3.644531 -40.886719 4.316406 -41.695312 C 4.859375 -42.367188 6.207031 -43.988281 4.585938 -43.988281 C 4.316406 -43.988281 3.914062 -44.125 3.914062 -44.257812 C 3.777344 -44.796875 3.375 -44.664062 1.078125 -43.449219 C -0.945312 -42.367188 -3.507812 -40.75 -5.128906 -39.402344 C -5.800781 -38.859375 -6.070312 -38.589844 -6.070312 -38.1875 C -6.070312 -37.511719 -5.667969 -37.375 -4.859375 -37.375 C -4.183594 -37.375 -1.484375 -38.726562 -0.40625 -39.535156 C 0.675781 -40.480469 2.429688 -41.425781 2.429688 -41.289062 L 2.023438 -40.34375 C 1.753906 -39.941406 1.621094 -39.402344 1.621094 -38.996094 C 1.484375 -38.457031 1.484375 -38.050781 1.890625 -37.511719 C 2.160156 -37.105469 2.429688 -36.835938 2.96875 -36.835938 Z M -4.585938 -38.589844 L -3.777344 -39.128906 C -2.96875 -39.941406 -0.808594 -41.425781 0.945312 -42.234375 C 2.292969 -43.042969 2.5625 -43.042969 2.5625 -42.773438 C 2.5625 -42.640625 2.160156 -42.367188 1.753906 -42.234375 C 0.675781 -41.695312 0.136719 -41.289062 -0.136719 -41.019531 C -0.40625 -40.75 -2.699219 -39.402344 -3.777344 -38.859375 Z M -4.585938 -38.589844 "/></g></g></g><g fill="#1f2122" fill-opacity="1"><g transform="translate(550.130266, 292.037633)"><g><path d="M 17.542969 -33.867188 C 21.050781 -34.273438 27.257812 -35.757812 32.652344 -38.050781 C 36.164062 -39.402344 36.703125 -39.535156 41.289062 -41.695312 L 41.695312 -41.964844 C 41.964844 -42.097656 42.234375 -42.097656 42.367188 -42.367188 C 42.503906 -42.640625 42.234375 -42.773438 42.097656 -42.910156 L 41.695312 -42.910156 C 41.425781 -42.773438 41.15625 -42.773438 40.886719 -42.640625 L 39.535156 -41.964844 L 38.996094 -41.828125 L 34.542969 -39.941406 L 32.789062 -39.402344 C 27.796875 -37.511719 22.804688 -35.488281 16.460938 -35.082031 C 14.167969 -35.082031 13.222656 -35.351562 12.683594 -36.296875 C 12.277344 -36.835938 12.277344 -37.375 12.414062 -38.457031 C 12.546875 -39.804688 13.628906 -41.15625 14.4375 -41.695312 C 14.976562 -42.097656 15.113281 -42.503906 14.707031 -42.910156 C 14.304688 -43.179688 13.089844 -42.910156 12.683594 -42.640625 C 12.277344 -42.234375 6.070312 -40.34375 5.398438 -40.480469 C 4.992188 -40.613281 4.992188 -40.613281 5.398438 -41.289062 C 5.667969 -41.964844 5.667969 -42.097656 5.398438 -42.367188 C 4.992188 -42.773438 4.316406 -42.773438 3.507812 -42.097656 L 2.832031 -41.558594 L 0.808594 -40.34375 L 0.539062 -40.074219 L 0 -39.804688 C -0.136719 -39.804688 -0.539062 -39.535156 -0.675781 -39.671875 C -0.675781 -39.804688 -0.269531 -40.074219 -0.136719 -40.210938 C 1.078125 -41.289062 2.160156 -42.640625 2.023438 -43.042969 L 2.023438 -43.449219 C 2.023438 -43.71875 1.078125 -43.851562 0.808594 -43.71875 C 0.539062 -43.449219 -3.238281 -39.128906 -3.644531 -38.457031 C -4.046875 -37.644531 -4.183594 -37.242188 -3.777344 -36.835938 C -3.238281 -36.296875 -2.429688 -36.703125 0.136719 -38.320312 C 2.023438 -39.671875 3.375 -40.34375 2.96875 -39.941406 C 2.832031 -39.804688 2.96875 -39.535156 3.238281 -39.265625 C 3.777344 -38.859375 3.914062 -38.859375 4.859375 -38.859375 C 6.070312 -38.996094 9.308594 -39.804688 9.984375 -40.210938 C 10.390625 -40.34375 10.660156 -40.480469 10.660156 -40.34375 C 10.792969 -40.34375 10.792969 -39.804688 10.660156 -39.265625 C 9.851562 -36.296875 10.792969 -34.679688 13.492188 -34.003906 C 14.574219 -33.734375 15.515625 -33.734375 17.542969 -33.867188 Z M 17.542969 -33.867188 "/></g></g></g><g fill="#1f2122" fill-opacity="1"><g transform="translate(591.824597, 292.037633)"><g><path d="M -42.910156 7.285156 C -42.640625 7.421875 -42.367188 7.285156 -41.695312 6.882812 L -38.726562 4.722656 C -35.757812 2.699219 -32.113281 -0.40625 -30.226562 -2.023438 C -26.988281 -4.992188 -24.691406 -7.554688 -22.398438 -9.851562 C -21.320312 -11.066406 -15.789062 -17.136719 -14.03125 -19.699219 C -9.984375 -25.234375 -9.039062 -27.929688 -9.175781 -29.820312 L -9.175781 -30.226562 L -8.230469 -30.496094 C -8.097656 -30.496094 -7.960938 -30.628906 -7.960938 -30.765625 C -7.960938 -30.765625 -7.421875 -31.035156 -6.746094 -31.167969 L -3.238281 -32.382812 C 0.40625 -33.734375 3.238281 -34.40625 3.914062 -34.003906 C 4.046875 -33.867188 4.183594 -33.597656 4.183594 -33.195312 C 4.183594 -32.382812 4.453125 -32.113281 4.992188 -32.519531 C 5.800781 -33.195312 5.53125 -34.949219 4.453125 -35.082031 C 3.101562 -35.488281 -2.160156 -34.273438 -7.824219 -31.980469 L 0.40625 -41.558594 C 0.945312 -41.964844 1.621094 -42.234375 2.292969 -42.503906 C 4.859375 -43.71875 8.5 -46.148438 9.039062 -46.957031 C 9.175781 -47.226562 9.308594 -48.035156 9.445312 -48.574219 C 9.582031 -49.925781 9.308594 -50.601562 8.5 -50.601562 C 7.691406 -50.464844 5.800781 -49.519531 4.722656 -48.304688 L 1.753906 -45.066406 L -12.414062 -29.144531 L -13.761719 -27.660156 C -21.050781 -19.160156 -26.042969 -13.898438 -41.828125 4.453125 C -43.179688 6.070312 -43.582031 6.746094 -42.910156 7.285156 Z M 2.699219 -43.851562 C 2.699219 -44.257812 6.476562 -48.035156 7.152344 -48.574219 C 8.097656 -49.117188 8.636719 -49.25 8.636719 -48.574219 C 8.5 -47.765625 7.824219 -46.957031 6.476562 -46.011719 C 5.128906 -45.066406 2.5625 -43.71875 2.699219 -43.851562 Z M -39.402344 3.644531 C -39.402344 3.644531 -38.457031 2.292969 -37.105469 0.808594 L -25.234375 -13.359375 C -22.804688 -16.058594 -20.105469 -18.621094 -18.890625 -20.238281 L -11.46875 -28.472656 C -10.523438 -29.414062 -10.253906 -29.144531 -10.121094 -28.742188 L -10.390625 -27.527344 C -11.199219 -25.636719 -13.359375 -22.128906 -18.214844 -16.058594 C -21.320312 -12.007812 -23.34375 -9.984375 -24.289062 -9.039062 C -24.691406 -8.636719 -24.421875 -9.039062 -25.234375 -8.230469 C -26.445312 -7.015625 -29.550781 -3.914062 -30.359375 -3.238281 L -31.980469 -1.753906 C -34.8125 0.675781 -39.128906 3.914062 -39.402344 3.644531 Z M -39.402344 3.644531 "/></g></g><g transform="translate(605.317924, 292.037633)"><g><path d="M -2.832031 -36.566406 L -2.023438 -36.566406 C -0.945312 -36.566406 0.945312 -37.78125 1.621094 -38.320312 L 2.5625 -39.128906 L 2.699219 -39.265625 L 2.699219 -38.726562 C 2.429688 -37.511719 2.832031 -36.027344 5.128906 -36.566406 L 5.53125 -36.566406 C 5.53125 -36.566406 7.960938 -37.242188 10.523438 -38.320312 L 16.460938 -41.019531 L 18.082031 -41.828125 C 18.484375 -41.964844 18.484375 -42.367188 18.214844 -42.503906 L 17.945312 -42.640625 L 17.675781 -42.640625 L 17.40625 -42.503906 C 11.46875 -39.941406 7.421875 -38.320312 5.53125 -37.917969 C 5.53125 -37.917969 4.183594 -37.375 4.046875 -38.050781 C 3.777344 -38.457031 4.183594 -39.671875 5.128906 -40.886719 C 6.34375 -42.367188 8.097656 -44.125 7.015625 -44.527344 C 6.613281 -44.664062 6.476562 -44.664062 5.800781 -43.988281 L 5.53125 -43.582031 L 4.722656 -42.773438 L 4.453125 -42.367188 C 2.5625 -40.074219 -1.484375 -36.972656 -2.023438 -38.050781 C -2.292969 -38.589844 0.539062 -41.558594 1.753906 -43.042969 C 2.292969 -43.71875 2.699219 -44.394531 2.160156 -44.664062 C 1.890625 -44.933594 1.753906 -44.796875 1.214844 -44.394531 C 0.269531 -43.3125 -2.699219 -40.480469 -3.101562 -39.265625 C -3.238281 -38.726562 -3.507812 -37.917969 -3.238281 -37.242188 Z M -2.832031 -36.566406 "/></g></g></g><g fill="#1f2122" fill-opacity="1"><g transform="translate(623.264021, 292.037633)"><g><path d="M -3.644531 -36.296875 C -3.375 -36.703125 -2.5625 -37.242188 -2.023438 -37.644531 L -0.539062 -38.726562 C 0 -39.265625 0.808594 -39.671875 3.644531 -41.019531 L 5.128906 -41.828125 C 5.800781 -42.097656 5.9375 -42.097656 6.476562 -41.695312 C 7.285156 -41.289062 8.367188 -41.425781 10.253906 -42.097656 L 12.414062 -43.179688 L 13.898438 -43.851562 C 14.167969 -43.988281 14.84375 -44.125 15.113281 -44.125 C 15.515625 -44.125 15.789062 -44.257812 16.191406 -44.527344 C 17 -45.335938 17.136719 -45.742188 16.867188 -46.148438 C 16.597656 -46.6875 16.191406 -46.6875 15.113281 -45.878906 C 14.574219 -45.609375 14.167969 -45.335938 14.03125 -45.335938 C 13.898438 -45.335938 13.492188 -45.203125 13.089844 -44.933594 C 11.875 -44.125 9.175781 -42.910156 8.367188 -42.910156 C 8.097656 -42.910156 7.960938 -43.042969 7.824219 -43.449219 C 7.691406 -44.257812 7.285156 -44.394531 6.476562 -43.988281 C 6.207031 -43.71875 3.375 -42.503906 2.699219 -42.097656 L 1.484375 -41.558594 C 1.078125 -41.289062 1.484375 -41.828125 2.5625 -42.773438 C 3.914062 -43.988281 4.183594 -44.796875 3.375 -45.066406 C 2.96875 -45.203125 2.699219 -45.203125 2.160156 -44.796875 C 0.945312 -44.125 -2.160156 -41.019531 -3.238281 -39.671875 L -4.453125 -38.1875 C -4.859375 -37.644531 -5.261719 -37.105469 -5.398438 -36.835938 C -5.53125 -35.757812 -4.316406 -35.488281 -3.644531 -36.296875 Z M -3.644531 -36.296875 "/></g></g></g><g fill="#1f2122" fill-opacity="1"><g transform="translate(644.313604, 292.037633)"><g><path d="M 7.960938 -36.164062 L 10.792969 -36.566406 C 13.359375 -37.105469 17.945312 -38.726562 17.945312 -38.726562 L 19.835938 -39.535156 L 21.320312 -40.210938 L 22.128906 -40.613281 C 23.207031 -41.15625 23.34375 -41.15625 24.421875 -41.558594 C 25.90625 -42.097656 26.582031 -42.367188 25.636719 -42.773438 C 25.367188 -42.910156 24.421875 -42.640625 21.589844 -41.425781 C 19.566406 -40.613281 16.730469 -39.535156 15.382812 -39.128906 C 8.90625 -37.105469 5.667969 -36.703125 5.667969 -38.457031 C 5.53125 -38.996094 5.800781 -39.671875 6.746094 -40.613281 C 7.824219 -41.828125 7.824219 -44.125 5.800781 -42.640625 C 5.53125 -42.367188 4.859375 -42.097656 4.316406 -41.828125 L 0 -39.941406 L 0.945312 -41.425781 C 1.347656 -42.234375 1.347656 -42.234375 0.945312 -42.773438 C 0.40625 -43.449219 -0.136719 -43.3125 -1.078125 -41.964844 L -2.023438 -40.75 C -2.292969 -40.074219 -3.375 -38.457031 -3.914062 -37.917969 L -3.914062 -37.511719 C -4.183594 -37.105469 -3.777344 -36.566406 -3.238281 -36.566406 C -3.101562 -36.433594 -2.699219 -36.703125 -2.292969 -36.835938 C -1.078125 -37.644531 3.101562 -39.941406 4.453125 -40.613281 L 4.585938 -40.613281 L 4.316406 -40.074219 L 4.316406 -39.941406 L 4.046875 -39.535156 C 3.644531 -38.859375 3.914062 -37.242188 4.453125 -36.835938 C 5.261719 -36.164062 6.613281 -36.027344 7.960938 -36.164062 Z M 7.960938 -36.164062 "/></g></g></g><g fill="#1f2122" fill-opacity="1"><g transform="translate(669.681047, 292.037633)"><g><path d="M 3.914062 -46.550781 C 4.722656 -46.550781 5.128906 -46.957031 5.128906 -47.496094 C 5.128906 -48.710938 5.128906 -48.710938 5.398438 -48.574219 C 4.722656 -48.980469 4.183594 -48.847656 3.777344 -48.574219 C 2.832031 -47.496094 2.699219 -47.363281 2.96875 -46.957031 C 3.101562 -46.550781 3.238281 -46.550781 3.914062 -46.550781 Z M -2.023438 -36.703125 C -0.539062 -36.835938 2.023438 -37.644531 4.183594 -38.589844 L 10.121094 -41.289062 L 11.738281 -41.964844 C 12.144531 -42.234375 12.144531 -42.640625 11.875 -42.773438 L 11.605469 -42.910156 L 11.335938 -42.910156 L 11.066406 -42.773438 C 5.128906 -40.210938 1.078125 -38.589844 -0.808594 -38.1875 C -0.808594 -38.1875 -1.890625 -37.78125 -2.429688 -38.050781 C -2.429688 -38.589844 -2.292969 -39.128906 -1.890625 -39.671875 L 0.40625 -41.558594 C 2.023438 -42.910156 2.429688 -43.582031 1.753906 -43.851562 C 1.484375 -43.988281 0.40625 -43.582031 -0.539062 -42.910156 C -2.96875 -40.886719 -4.046875 -39.535156 -4.046875 -38.1875 L -4.046875 -37.78125 C -4.046875 -36.972656 -3.375 -36.566406 -2.023438 -36.703125 Z M -2.023438 -36.703125 "/></g></g></g><g fill="#1f2122" fill-opacity="1"><g transform="translate(681.015444, 292.037633)"><g><path d="M 60.855469 -63.957031 C 60.179688 -64.226562 59.101562 -64.363281 55.996094 -64.632812 C 53.164062 -64.902344 32.25 -65.710938 29.683594 -65.710938 L 25.90625 -65.847656 L 23.34375 -65.847656 C 23.75 -66.386719 24.960938 -67.738281 25.773438 -68.410156 C 26.3125 -68.816406 26.851562 -69.355469 27.390625 -70.03125 C 27.929688 -70.703125 29.820312 -72.460938 30.765625 -73.269531 L 32.113281 -74.347656 L 32.652344 -75.023438 C 33.058594 -75.425781 33.058594 -75.5625 32.789062 -75.96875 C 32.652344 -76.238281 32.382812 -76.371094 32.25 -76.371094 C 31.980469 -76.371094 30.359375 -75.15625 30.226562 -74.753906 L 29.011719 -73.671875 C 27.527344 -72.460938 27.257812 -72.324219 26.988281 -71.917969 C 26.714844 -71.648438 23.207031 -68.277344 22.667969 -67.871094 L 22.265625 -67.464844 L 21.183594 -66.253906 L 20.644531 -65.710938 L 1.621094 -65.308594 L -1.347656 -65.039062 C -3.644531 -64.902344 -10.121094 -64.363281 -11.199219 -64.09375 C -12.277344 -63.824219 -12.820312 -63.285156 -12.414062 -62.878906 C -12.277344 -62.609375 -9.582031 -62.878906 -7.691406 -63.285156 C -7.285156 -63.417969 -4.046875 -63.824219 -0.808594 -63.957031 L 2.5625 -64.226562 L 6.207031 -64.363281 L 10.660156 -64.632812 C 11.875 -64.769531 16.460938 -64.769531 19.429688 -64.769531 C 19.296875 -64.5 19.027344 -64.363281 18.890625 -64.09375 L 18.484375 -63.824219 L 18.082031 -63.285156 L 16.460938 -61.53125 C 14.574219 -59.503906 8.636719 -53.027344 7.421875 -51.273438 C 7.421875 -51.273438 5.261719 -48.710938 5.261719 -48.847656 C 5.261719 -48.710938 4.722656 -48.171875 4.183594 -47.632812 C 3.507812 -46.957031 2.429688 -45.742188 -0.40625 -42.367188 L -1.484375 -41.15625 L -2.5625 -39.804688 C -2.832031 -39.402344 -2.96875 -39.128906 -3.101562 -39.128906 C -3.375 -39.128906 -4.046875 -38.320312 -6.207031 -35.488281 C -7.015625 -34.542969 -7.691406 -33.734375 -7.960938 -33.597656 C -8.097656 -33.328125 -9.445312 -31.710938 -10.929688 -29.957031 L -14.304688 -25.773438 L -19.835938 -18.351562 C -21.183594 -16.460938 -21.992188 -15.382812 -22.265625 -15.515625 L -22.265625 -15.246094 C -22.265625 -15.113281 -22.265625 -14.84375 -22.398438 -14.574219 C -22.535156 -14.167969 -22.667969 -14.03125 -22.804688 -14.167969 C -22.804688 -14.03125 -22.9375 -13.898438 -22.9375 -13.898438 C -22.9375 -13.628906 -22.9375 -13.492188 -23.074219 -13.492188 C -23.074219 -13.628906 -23.476562 -12.820312 -23.75 -11.875 C -24.289062 -10.523438 -24.421875 -9.984375 -24.289062 -9.308594 C -24.019531 -8.5 -23.882812 -8.367188 -23.476562 -8.230469 C -22.9375 -8.230469 -22.667969 -8.230469 -22.535156 -8.5 C -22.265625 -8.90625 -22.265625 -8.90625 -22.804688 -9.039062 C -23.34375 -9.039062 -23.34375 -9.175781 -23.34375 -9.714844 C -23.207031 -10.390625 -22.128906 -12.683594 -21.183594 -14.167969 C -18.621094 -17.945312 -11.875 -26.582031 -7.554688 -31.574219 L -5.398438 -34.136719 L -0.945312 -39.265625 L 2.699219 -43.3125 L 3.914062 -44.796875 L 5.53125 -46.550781 C 6.746094 -47.902344 7.824219 -49.25 10.121094 -51.949219 C 10.929688 -52.894531 11.875 -53.839844 12.277344 -54.242188 C 12.683594 -54.648438 13.359375 -55.457031 13.761719 -55.996094 L 16.058594 -58.425781 C 17.542969 -60.046875 18.484375 -60.855469 19.296875 -61.933594 L 20.511719 -63.148438 C 20.914062 -63.6875 21.320312 -63.957031 21.589844 -64.363281 L 22.265625 -64.769531 C 23.34375 -64.902344 24.152344 -64.769531 24.558594 -64.769531 L 25.097656 -64.769531 C 32.921875 -64.632812 51.679688 -64.09375 54.378906 -63.6875 C 55.1875 -63.417969 56.535156 -63.417969 57.210938 -63.285156 C 58.5625 -63.285156 58.5625 -63.285156 58.292969 -62.742188 C 58.019531 -62.472656 58.15625 -62.203125 58.292969 -62.070312 C 58.5625 -61.800781 58.695312 -61.664062 58.832031 -61.800781 L 60.179688 -62.339844 C 61.664062 -63.015625 61.800781 -63.417969 60.855469 -63.957031 Z M 60.855469 -63.957031 "/></g></g></g><g fill="#1f2122" fill-opacity="1"><g transform="translate(692.484751, 292.037633)"><g><path d="M -2.832031 -36.566406 L -2.023438 -36.566406 C -0.945312 -36.566406 0.945312 -37.78125 1.621094 -38.320312 L 2.5625 -39.128906 L 2.699219 -39.265625 L 2.699219 -38.726562 C 2.429688 -37.511719 2.832031 -36.027344 5.128906 -36.566406 L 5.53125 -36.566406 C 5.53125 -36.566406 7.960938 -37.242188 10.523438 -38.320312 L 16.460938 -41.019531 L 18.082031 -41.828125 C 18.484375 -41.964844 18.484375 -42.367188 18.214844 -42.503906 L 17.945312 -42.640625 L 17.675781 -42.640625 L 17.40625 -42.503906 C 11.46875 -39.941406 7.421875 -38.320312 5.53125 -37.917969 C 5.53125 -37.917969 4.183594 -37.375 4.046875 -38.050781 C 3.777344 -38.457031 4.183594 -39.671875 5.128906 -40.886719 C 6.34375 -42.367188 8.097656 -44.125 7.015625 -44.527344 C 6.613281 -44.664062 6.476562 -44.664062 5.800781 -43.988281 L 5.53125 -43.582031 L 4.722656 -42.773438 L 4.453125 -42.367188 C 2.5625 -40.074219 -1.484375 -36.972656 -2.023438 -38.050781 C -2.292969 -38.589844 0.539062 -41.558594 1.753906 -43.042969 C 2.292969 -43.71875 2.699219 -44.394531 2.160156 -44.664062 C 1.890625 -44.933594 1.753906 -44.796875 1.214844 -44.394531 C 0.269531 -43.3125 -2.699219 -40.480469 -3.101562 -39.265625 C -3.238281 -38.726562 -3.507812 -37.917969 -3.238281 -37.242188 Z M -2.832031 -36.566406 "/></g></g></g><g fill="#1f2122" fill-opacity="1"><g transform="translate(710.430849, 292.037633)"><g><path d="M -3.644531 -36.296875 C -3.375 -36.703125 -2.5625 -37.242188 -2.023438 -37.644531 L -0.539062 -38.726562 C 0 -39.265625 0.808594 -39.671875 3.644531 -41.019531 L 5.128906 -41.828125 C 5.800781 -42.097656 5.9375 -42.097656 6.476562 -41.695312 C 7.285156 -41.289062 8.367188 -41.425781 10.253906 -42.097656 L 12.414062 -43.179688 L 13.898438 -43.851562 C 14.167969 -43.988281 14.84375 -44.125 15.113281 -44.125 C 15.515625 -44.125 15.789062 -44.257812 16.191406 -44.527344 C 17 -45.335938 17.136719 -45.742188 16.867188 -46.148438 C 16.597656 -46.6875 16.191406 -46.6875 15.113281 -45.878906 C 14.574219 -45.609375 14.167969 -45.335938 14.03125 -45.335938 C 13.898438 -45.335938 13.492188 -45.203125 13.089844 -44.933594 C 11.875 -44.125 9.175781 -42.910156 8.367188 -42.910156 C 8.097656 -42.910156 7.960938 -43.042969 7.824219 -43.449219 C 7.691406 -44.257812 7.285156 -44.394531 6.476562 -43.988281 C 6.207031 -43.71875 3.375 -42.503906 2.699219 -42.097656 L 1.484375 -41.558594 C 1.078125 -41.289062 1.484375 -41.828125 2.5625 -42.773438 C 3.914062 -43.988281 4.183594 -44.796875 3.375 -45.066406 C 2.96875 -45.203125 2.699219 -45.203125 2.160156 -44.796875 C 0.945312 -44.125 -2.160156 -41.019531 -3.238281 -39.671875 L -4.453125 -38.1875 C -4.859375 -37.644531 -5.261719 -37.105469 -5.398438 -36.835938 C -5.53125 -35.757812 -4.316406 -35.488281 -3.644531 -36.296875 Z M -3.644531 -36.296875 "/></g></g></g><g fill="#1f2122" fill-opacity="1"><g transform="translate(731.480431, 292.037633)"><g><path d="M -1.347656 -36.835938 C 0.136719 -37.105469 1.078125 -37.375 3.507812 -38.589844 L 9.582031 -41.289062 L 11.335938 -42.097656 C 11.46875 -42.234375 11.46875 -42.640625 11.199219 -42.773438 L 11.066406 -42.910156 L 10.660156 -42.910156 L 10.390625 -42.773438 C 2.96875 -39.535156 -1.484375 -37.917969 -2.292969 -38.1875 C -2.5625 -38.320312 -2.5625 -38.457031 -2.160156 -38.859375 C -1.890625 -39.402344 -1.621094 -39.535156 -0.675781 -39.804688 C 0.808594 -40.210938 2.160156 -40.886719 4.453125 -42.503906 C 6.613281 -43.988281 7.554688 -44.796875 7.421875 -45.203125 C 7.152344 -46.011719 5.9375 -45.878906 3.777344 -45.066406 C 1.078125 -44.125 -2.023438 -41.695312 -3.375 -39.535156 C -4.046875 -38.457031 -4.183594 -38.050781 -3.914062 -37.511719 C -3.777344 -36.566406 -3.507812 -36.566406 -1.347656 -36.835938 Z M -0.269531 -41.289062 C -0.136719 -41.695312 2.160156 -43.3125 3.101562 -43.582031 C 3.914062 -43.988281 5.261719 -44.527344 5.261719 -44.257812 C 5.128906 -44.125 3.101562 -42.773438 1.890625 -42.097656 C 0.40625 -41.289062 -0.539062 -41.019531 -0.269531 -41.289062 Z M -0.269531 -41.289062 "/></g></g></g></svg>